<svg id="Layer_1" data-name="Layer 1" xmlns="http://www.w3.org/2000/svg" xmlns:xlink="http://www.w3.org/1999/xlink" viewBox="0 0 500 500"><defs><style>.cls-1{fill:none;}.cls-2{clip-path:url(#clip-path);}.cls-3{fill:url(#linear-gradient);}.cls-4{fill:url(#linear-gradient-3);}.cls-5{fill:url(#linear-gradient-5);}.cls-6{fill:url(#linear-gradient-7);}.cls-7{fill:url(#linear-gradient-9);}.cls-8{fill:url(#linear-gradient-10);}.cls-9{fill:url(#linear-gradient-11);}.cls-10{fill:url(#linear-gradient-12);}.cls-11{fill:url(#linear-gradient-13);}.cls-12{opacity:0.2;}.cls-13{fill:url(#linear-gradient-14);}.cls-14{fill:url(#linear-gradient-15);}.cls-15{fill:url(#linear-gradient-16);}.cls-16{fill:url(#linear-gradient-17);}.cls-17{fill:url(#linear-gradient-18);}.cls-18{fill:url(#linear-gradient-19);}.cls-19{fill:url(#linear-gradient-20);}.cls-20{fill:url(#linear-gradient-21);}.cls-21{fill:url(#linear-gradient-22);}.cls-22{fill:url(#linear-gradient-23);}.cls-23{fill:url(#linear-gradient-24);}.cls-24{fill:url(#linear-gradient-25);}.cls-25{fill:url(#linear-gradient-26);}.cls-26{fill:url(#linear-gradient-27);}.cls-27{fill:url(#linear-gradient-28);}.cls-28{fill:url(#linear-gradient-29);}.cls-29{fill:url(#linear-gradient-30);}.cls-30{fill:url(#linear-gradient-31);}.cls-31{fill:url(#linear-gradient-32);}.cls-32{fill:url(#linear-gradient-33);}.cls-33{fill:url(#linear-gradient-34);}.cls-34{fill:url(#linear-gradient-35);}.cls-35{fill:url(#linear-gradient-36);}.cls-36{fill:url(#linear-gradient-37);}.cls-37{fill:url(#linear-gradient-38);}.cls-38{fill:url(#linear-gradient-39);}.cls-39{fill:url(#linear-gradient-40);}.cls-40{fill:url(#linear-gradient-41);}.cls-41{fill-rule:evenodd;fill:url(#linear-gradient-42);}.cls-42{fill:url(#linear-gradient-43);}.cls-43{fill:url(#linear-gradient-44);}.cls-44{fill:url(#linear-gradient-45);}.cls-45{fill:url(#linear-gradient-46);}.cls-46{fill:url(#linear-gradient-47);}.cls-47{fill:url(#linear-gradient-48);}.cls-48{fill:url(#linear-gradient-49);}.cls-49{fill:url(#linear-gradient-50);}.cls-50{fill:url(#linear-gradient-51);}.cls-51{fill:url(#linear-gradient-52);}.cls-52{fill:url(#linear-gradient-53);}.cls-53{fill:url(#linear-gradient-54);}.cls-54{fill:url(#linear-gradient-55);}.cls-55{fill:url(#linear-gradient-56);}</style><clipPath id="clip-path"><path class="cls-1" d="M208.62,339.41H31.74V160.59H208.62Zm-63.07-57.3-.88-1.21c4-.6,7.06-2.4,8.8-5.21,3.1-5,1.46-12-4.5-19.09l-.94-1.12V232.25l-11.29-11.78H106.68v6.66H98.76v4c-5.9.08-9,2.52-10.51,4.57C85,240,85.5,246.47,89.69,253.8a55.83,55.83,0,0,0,9.07,11.53v14.59h18.58l.21-.79c6.89,3.6,13.6,5.61,19.1,5.61A14.18,14.18,0,0,0,145.55,282.11Z"/></clipPath><linearGradient id="linear-gradient" x1="44.83" y1="248.67" x2="103.75" y2="248.67" gradientUnits="userSpaceOnUse"><stop offset="0" stop-color="#00c9ff"/><stop offset="1" stop-color="#1e1cb0"/></linearGradient><linearGradient id="linear-gradient-3" x1="144.18" y1="225.76" x2="202.41" y2="225.76" xlink:href="#linear-gradient"/><linearGradient id="linear-gradient-5" x1="77.5" y1="198.7" x2="155.15" y2="198.7" xlink:href="#linear-gradient"/><linearGradient id="linear-gradient-7" x1="94.2" y1="303.43" x2="186.93" y2="303.43" xlink:href="#linear-gradient"/><linearGradient id="linear-gradient-9" x1="106.12" y1="229.38" x2="109.33" y2="229.38" xlink:href="#linear-gradient"/><linearGradient id="linear-gradient-10" x1="112.42" y1="229.38" x2="115.63" y2="229.38" xlink:href="#linear-gradient"/><linearGradient id="linear-gradient-11" x1="118.73" y1="229.38" x2="121.94" y2="229.38" xlink:href="#linear-gradient"/><linearGradient id="linear-gradient-12" x1="125.04" y1="229.38" x2="128.25" y2="229.38" xlink:href="#linear-gradient"/><linearGradient id="linear-gradient-13" x1="131.34" y1="229.38" x2="134.55" y2="229.38" xlink:href="#linear-gradient"/><linearGradient id="linear-gradient-14" x1="106.12" y1="230" x2="109.33" y2="230" xlink:href="#linear-gradient"/><linearGradient id="linear-gradient-15" x1="112.42" y1="230" x2="115.63" y2="230" xlink:href="#linear-gradient"/><linearGradient id="linear-gradient-16" x1="118.73" y1="230" x2="121.94" y2="230" xlink:href="#linear-gradient"/><linearGradient id="linear-gradient-17" x1="125.04" y1="230" x2="128.25" y2="230" xlink:href="#linear-gradient"/><linearGradient id="linear-gradient-18" x1="131.34" y1="230" x2="134.55" y2="230" xlink:href="#linear-gradient"/><linearGradient id="linear-gradient-19" x1="96.49" y1="252.25" x2="98.43" y2="252.25" xlink:href="#linear-gradient"/><linearGradient id="linear-gradient-20" x1="97.68" y1="252.25" x2="98.43" y2="252.25" xlink:href="#linear-gradient"/><linearGradient id="linear-gradient-21" x1="142.24" y1="264.87" x2="144.18" y2="264.87" gradientTransform="translate(408.08 121.66) rotate(90)" xlink:href="#linear-gradient"/><linearGradient id="linear-gradient-22" x1="142.24" y1="258.56" x2="144.18" y2="258.56" gradientTransform="translate(401.77 115.35) rotate(90)" xlink:href="#linear-gradient"/><linearGradient id="linear-gradient-23" x1="142.24" y1="252.25" x2="144.18" y2="252.25" gradientTransform="translate(395.46 109.05) rotate(90)" xlink:href="#linear-gradient"/><linearGradient id="linear-gradient-24" x1="142.24" y1="245.95" x2="144.18" y2="245.95" gradientTransform="translate(389.16 102.74) rotate(90)" xlink:href="#linear-gradient"/><linearGradient id="linear-gradient-25" x1="142.24" y1="239.64" x2="144.18" y2="239.64" gradientTransform="translate(382.85 96.43) rotate(90)" xlink:href="#linear-gradient"/><linearGradient id="linear-gradient-26" x1="142.24" y1="264.87" x2="142.96" y2="264.87" gradientTransform="translate(407.47 122.27) rotate(90)" xlink:href="#linear-gradient"/><linearGradient id="linear-gradient-27" x1="142.24" y1="258.56" x2="142.96" y2="258.56" gradientTransform="translate(401.16 115.96) rotate(90)" xlink:href="#linear-gradient"/><linearGradient id="linear-gradient-28" x1="142.24" y1="252.25" x2="142.96" y2="252.25" gradientTransform="translate(394.85 109.65) rotate(90)" xlink:href="#linear-gradient"/><linearGradient id="linear-gradient-29" x1="142.24" y1="245.95" x2="142.96" y2="245.95" gradientTransform="translate(388.55 103.35) rotate(90)" xlink:href="#linear-gradient"/><linearGradient id="linear-gradient-30" x1="142.24" y1="239.64" x2="142.96" y2="239.64" gradientTransform="translate(382.24 97.04) rotate(90)" xlink:href="#linear-gradient"/><linearGradient id="linear-gradient-31" x1="131.34" y1="275.13" x2="134.55" y2="275.13" gradientTransform="translate(265.9 550.26) rotate(-180)" xlink:href="#linear-gradient"/><linearGradient id="linear-gradient-32" x1="125.04" y1="275.13" x2="128.25" y2="275.13" gradientTransform="translate(253.28 550.26) rotate(-180)" xlink:href="#linear-gradient"/><linearGradient id="linear-gradient-33" x1="118.73" y1="275.13" x2="121.94" y2="275.13" gradientTransform="translate(240.67 550.26) rotate(-180)" xlink:href="#linear-gradient"/><linearGradient id="linear-gradient-34" x1="112.42" y1="275.13" x2="115.63" y2="275.13" gradientTransform="translate(228.06 550.26) rotate(-180)" xlink:href="#linear-gradient"/><linearGradient id="linear-gradient-35" x1="106.12" y1="275.13" x2="109.33" y2="275.13" gradientTransform="translate(215.44 550.26) rotate(-180)" xlink:href="#linear-gradient"/><linearGradient id="linear-gradient-36" x1="131.34" y1="274.5" x2="134.55" y2="274.5" gradientTransform="translate(265.9 549.01) rotate(-180)" xlink:href="#linear-gradient"/><linearGradient id="linear-gradient-37" x1="125.04" y1="274.5" x2="128.25" y2="274.5" gradientTransform="translate(253.28 549.01) rotate(-180)" xlink:href="#linear-gradient"/><linearGradient id="linear-gradient-38" x1="118.73" y1="274.5" x2="121.94" y2="274.5" gradientTransform="translate(240.67 549.01) rotate(-180)" xlink:href="#linear-gradient"/><linearGradient id="linear-gradient-39" x1="112.42" y1="274.5" x2="115.63" y2="274.5" gradientTransform="translate(228.06 549.01) rotate(-180)" xlink:href="#linear-gradient"/><linearGradient id="linear-gradient-40" x1="106.12" y1="274.5" x2="109.33" y2="274.5" gradientTransform="translate(215.44 549.01) rotate(-180)" xlink:href="#linear-gradient"/><linearGradient id="linear-gradient-41" x1="89.92" y1="252.61" x2="151.2" y2="252.61" gradientUnits="userSpaceOnUse"><stop offset="0" stop-color="#21367f"/><stop offset="0.28" stop-color="#194e91"/><stop offset="0.88" stop-color="#068bc0"/><stop offset="1" stop-color="#0298ca"/></linearGradient><linearGradient id="linear-gradient-42" x1="109.91" y1="235.45" x2="136.31" y2="235.45" xlink:href="#linear-gradient-41"/><linearGradient id="linear-gradient-43" x1="205.86" y1="272.95" x2="248.4" y2="170.73" xlink:href="#linear-gradient-41"/><linearGradient id="linear-gradient-44" x1="234.97" y1="285.06" x2="277.52" y2="182.84" xlink:href="#linear-gradient-41"/><linearGradient id="linear-gradient-45" x1="263.2" y1="296.81" x2="305.74" y2="194.59" xlink:href="#linear-gradient-41"/><linearGradient id="linear-gradient-46" x1="287.87" y1="307.08" x2="330.41" y2="204.85" xlink:href="#linear-gradient-41"/><linearGradient id="linear-gradient-47" x1="321.05" y1="320.88" x2="363.59" y2="218.66" xlink:href="#linear-gradient-41"/><linearGradient id="linear-gradient-48" x1="351.93" y1="333.74" x2="394.47" y2="231.52" xlink:href="#linear-gradient-41"/><linearGradient id="linear-gradient-49" x1="377.67" y1="344.45" x2="420.21" y2="242.23" xlink:href="#linear-gradient-41"/><linearGradient id="linear-gradient-50" x1="401.49" y1="354.36" x2="444.03" y2="252.14" xlink:href="#linear-gradient-41"/><linearGradient id="linear-gradient-51" x1="220.25" y1="278.94" x2="262.79" y2="176.72" xlink:href="#linear-gradient-41"/><linearGradient id="linear-gradient-52" x1="255.7" y1="293.69" x2="298.24" y2="191.47" xlink:href="#linear-gradient-41"/><linearGradient id="linear-gradient-53" x1="285.53" y1="306.1" x2="328.07" y2="203.88" xlink:href="#linear-gradient-41"/><linearGradient id="linear-gradient-54" x1="300.34" y1="312.27" x2="342.88" y2="210.04" xlink:href="#linear-gradient-41"/><linearGradient id="linear-gradient-55" x1="331.26" y1="325.13" x2="373.8" y2="222.91" xlink:href="#linear-gradient-41"/><linearGradient id="linear-gradient-56" x1="356.51" y1="335.64" x2="399.06" y2="233.42" xlink:href="#linear-gradient-41"/></defs><g class="cls-2"><path class="cls-3" d="M101.88,224.87a1.87,1.87,0,0,0-1.85,1.61h-7.4v-6.62a3,3,0,1,0-.53,0v6.62H85.48L82,220.92H73.77a1.88,1.88,0,1,0,0,.53h7.9L85.19,227H92.1v5.14H86.39a1.88,1.88,0,1,0,0,.53H92.1v6.69H82l-2.45-7.22H73.77a1.87,1.87,0,0,0-3.72.27,1.87,1.87,0,0,0,3.72.26h5.41l2.26,6.69h-8.1a3,3,0,1,0,0,.54H96.49v-.54H92.63V227H100a1.87,1.87,0,1,0,1.85-2.14Zm-29.95-2.35a1.34,1.34,0,1,1,1.33-1.34A1.34,1.34,0,0,1,71.93,222.52Zm12.61,11.23a1.34,1.34,0,1,1,1.34-1.33A1.34,1.34,0,0,1,84.54,233.75Zm-12.61,0a1.34,1.34,0,1,1,1.33-1.33A1.34,1.34,0,0,1,71.93,233.75Zm-1.61,8.39a2.5,2.5,0,1,1,2.51-2.5A2.5,2.5,0,0,1,70.32,242.14Zm22-22.8a2.51,2.51,0,1,1,2.51-2.51A2.51,2.51,0,0,1,92.36,219.34Zm9.52,8.74a1.34,1.34,0,1,1,1.34-1.34A1.34,1.34,0,0,1,101.88,228.08Zm-38.08,2.8a1.86,1.86,0,0,0,.27-3.71V215.63H78.7a1.87,1.87,0,1,0,0-.54H64.07V209l8.74-5v-9.75a1.87,1.87,0,1,0-.54,0v9.44l-8.73,5v18.47a1.86,1.86,0,0,0,.26,3.71ZM80.54,214a1.34,1.34,0,1,1-1.34,1.34A1.34,1.34,0,0,1,80.54,214Zm-9.34-21.6a1.34,1.34,0,1,1,1.34,1.34A1.34,1.34,0,0,1,71.2,192.42Zm-7.4,35.26A1.34,1.34,0,1,1,62.47,229,1.34,1.34,0,0,1,63.8,227.68Zm26.36,61.9a1.87,1.87,0,1,0-1.84-2.14H81.13l-2.59,4H73.93l-1.88-6.7H64.13a1.88,1.88,0,1,0,0,.53h7.51l1.73,6.17H59.31a1.88,1.88,0,1,0,0,.53H78.82l2.6-4h6.9A1.86,1.86,0,0,0,90.16,289.58Zm-27.88-3.26A1.34,1.34,0,1,1,63.62,285,1.34,1.34,0,0,1,62.28,286.32ZM57.47,293a1.34,1.34,0,1,1,1.34-1.33A1.34,1.34,0,0,1,57.47,293Zm32.69-6.65a1.34,1.34,0,1,1-1.34,1.34A1.34,1.34,0,0,1,90.16,286.37ZM78.64,244.15h6.48l2.42,2.06h8.95v-.53H87.73l-2.41-2.06H78.64a1.87,1.87,0,1,0,0,.53Zm-3.18-.27a1.34,1.34,0,1,1,1.33,1.34A1.34,1.34,0,0,1,75.46,243.88Zm-6.23,31.37H62.52a1.87,1.87,0,1,0,0,.54h7l4.9-6H86.51v4.08H78.9a1.91,1.91,0,1,0,0,.54h7.58v4.1a1.87,1.87,0,1,0,.53,0v-13.4h9.45v-.53h-10v4.68H70.12L64.5,263h-7a1.87,1.87,0,1,0,0,.53h6.74l5.15,5.75H53.12a3,3,0,1,0,0,.53H73.7Zm-8.55,1.61A1.34,1.34,0,1,1,62,275.52,1.34,1.34,0,0,1,60.68,276.86Zm16.4-1.23a1.34,1.34,0,1,1,1.33-1.33A1.34,1.34,0,0,1,77.08,275.63ZM86.72,279h.11a1.34,1.34,0,1,1-.11,0Zm-31-14.44A1.34,1.34,0,1,1,57,263.26,1.34,1.34,0,0,1,55.68,264.6Zm-5.58,7.45a2.51,2.51,0,1,1,2.5-2.5A2.5,2.5,0,0,1,50.1,272.05Zm26.37-7.45a1.88,1.88,0,1,0,0,.53h5.9l7.88-6.3h6.24v-.54H84.25l-3.53,2.4H71.16a1.88,1.88,0,1,0,0,.53h9.72l3.54-2.39h5l-7.21,5.77Zm-1.84,1.61A1.34,1.34,0,1,1,76,264.87,1.34,1.34,0,0,1,74.63,266.21Zm-5.31-3.92A1.34,1.34,0,1,1,70.65,261,1.34,1.34,0,0,1,69.32,262.29ZM95,273.67a1.87,1.87,0,0,0-.26,3.72v13.85l-4.31,2.85v9a1.88,1.88,0,1,0,.53,0v-8.69l4.31-2.85V277.39a1.87,1.87,0,0,0-.27-3.72Zm-3,31.24a1.34,1.34,0,1,1-1.33-1.34A1.34,1.34,0,0,1,92.07,304.91Zm3-28a1.34,1.34,0,1,1,1.34-1.34A1.34,1.34,0,0,1,95,276.88ZM50.89,252.52H78.13v3.84H63.28a1.88,1.88,0,1,0,0,.53H78.66v-4.37H96.49V252H71v-6.77H59.84a1.88,1.88,0,1,0,0,.53H70.47V252H50.89a3,3,0,1,0,0,.53ZM61.44,258a1.34,1.34,0,1,1,1.34-1.33A1.34,1.34,0,0,1,61.44,258ZM58,246.82a1.34,1.34,0,1,1,1.34-1.33A1.34,1.34,0,0,1,58,246.82Zm-12.63,5.43a2.51,2.51,0,1,1,2.51,2.51A2.51,2.51,0,0,1,45.36,252.25Z"/><path class="cls-3" d="M101.88,224.87a1.87,1.87,0,0,0-1.85,1.61h-7.4v-6.62a3,3,0,1,0-.53,0v6.62H85.48L82,220.92H73.77a1.88,1.88,0,1,0,0,.53h7.9L85.19,227H92.1v5.14H86.39a1.88,1.88,0,1,0,0,.53H92.1v6.69H82l-2.45-7.22H73.77a1.87,1.87,0,0,0-3.72.27,1.87,1.87,0,0,0,3.72.26h5.41l2.26,6.69h-8.1a3,3,0,1,0,0,.54H96.49v-.54H92.63V227H100a1.87,1.87,0,1,0,1.85-2.14Zm-29.95-2.35a1.34,1.34,0,1,1,1.33-1.34A1.34,1.34,0,0,1,71.93,222.52Zm12.61,11.23a1.34,1.34,0,1,1,1.34-1.33A1.34,1.34,0,0,1,84.54,233.75Zm-12.61,0a1.34,1.34,0,1,1,1.33-1.33A1.34,1.34,0,0,1,71.93,233.75Zm-1.61,8.39a2.5,2.5,0,1,1,2.51-2.5A2.5,2.5,0,0,1,70.32,242.14Zm22-22.8a2.51,2.51,0,1,1,2.51-2.51A2.51,2.51,0,0,1,92.36,219.34Zm9.52,8.74a1.34,1.34,0,1,1,1.34-1.34A1.34,1.34,0,0,1,101.88,228.08Zm-38.08,2.8a1.86,1.86,0,0,0,.27-3.71V215.63H78.7a1.87,1.87,0,1,0,0-.54H64.07V209l8.74-5v-9.75a1.87,1.87,0,1,0-.54,0v9.44l-8.73,5v18.47a1.86,1.86,0,0,0,.26,3.71ZM80.54,214a1.34,1.34,0,1,1-1.34,1.34A1.34,1.34,0,0,1,80.54,214Zm-9.34-21.6a1.34,1.34,0,1,1,1.34,1.34A1.34,1.34,0,0,1,71.2,192.42Zm-7.4,35.26A1.34,1.34,0,1,1,62.47,229,1.34,1.34,0,0,1,63.8,227.68Zm26.36,61.9a1.87,1.87,0,1,0-1.84-2.14H81.13l-2.59,4H73.93l-1.88-6.7H64.13a1.88,1.88,0,1,0,0,.53h7.51l1.73,6.17H59.31a1.88,1.88,0,1,0,0,.53H78.82l2.6-4h6.9A1.86,1.86,0,0,0,90.16,289.58Zm-27.88-3.26A1.34,1.34,0,1,1,63.62,285,1.34,1.34,0,0,1,62.28,286.32ZM57.47,293a1.34,1.34,0,1,1,1.34-1.33A1.34,1.34,0,0,1,57.47,293Zm32.69-6.65a1.34,1.34,0,1,1-1.34,1.34A1.34,1.34,0,0,1,90.16,286.37ZM78.64,244.15h6.48l2.42,2.06h8.95v-.53H87.73l-2.41-2.06H78.64a1.87,1.87,0,1,0,0,.53Zm-3.18-.27a1.34,1.34,0,1,1,1.33,1.34A1.34,1.34,0,0,1,75.46,243.88Zm-6.23,31.37H62.52a1.87,1.87,0,1,0,0,.54h7l4.9-6H86.51v4.08H78.9a1.91,1.91,0,1,0,0,.54h7.58v4.1a1.87,1.87,0,1,0,.53,0v-13.4h9.45v-.53h-10v4.68H70.12L64.5,263h-7a1.87,1.87,0,1,0,0,.53h6.74l5.15,5.75H53.12a3,3,0,1,0,0,.53H73.7Zm-8.55,1.61A1.34,1.34,0,1,1,62,275.52,1.34,1.34,0,0,1,60.68,276.86Zm16.4-1.23a1.34,1.34,0,1,1,1.33-1.33A1.34,1.34,0,0,1,77.08,275.63ZM86.72,279h.11a1.34,1.34,0,1,1-.11,0Zm-31-14.44A1.34,1.34,0,1,1,57,263.26,1.34,1.34,0,0,1,55.68,264.6Zm-5.58,7.45a2.51,2.51,0,1,1,2.5-2.5A2.5,2.5,0,0,1,50.1,272.05Zm26.37-7.45a1.88,1.88,0,1,0,0,.53h5.9l7.88-6.3h6.24v-.54H84.25l-3.53,2.4H71.16a1.88,1.88,0,1,0,0,.53h9.72l3.54-2.39h5l-7.21,5.77Zm-1.84,1.61A1.34,1.34,0,1,1,76,264.87,1.34,1.34,0,0,1,74.63,266.21Zm-5.31-3.92A1.34,1.34,0,1,1,70.65,261,1.34,1.34,0,0,1,69.32,262.29ZM95,273.67a1.87,1.87,0,0,0-.26,3.72v13.85l-4.31,2.85v9a1.88,1.88,0,1,0,.53,0v-8.69l4.31-2.85V277.39a1.87,1.87,0,0,0-.27-3.72Zm-3,31.24a1.34,1.34,0,1,1-1.33-1.34A1.34,1.34,0,0,1,92.07,304.91Zm3-28a1.34,1.34,0,1,1,1.34-1.34A1.34,1.34,0,0,1,95,276.88ZM50.89,252.52H78.13v3.84H63.28a1.88,1.88,0,1,0,0,.53H78.66v-4.37H96.49V252H71v-6.77H59.84a1.88,1.88,0,1,0,0,.53H70.47V252H50.89a3,3,0,1,0,0,.53ZM61.44,258a1.34,1.34,0,1,1,1.34-1.33A1.34,1.34,0,0,1,61.44,258ZM58,246.82a1.34,1.34,0,1,1,1.34-1.33A1.34,1.34,0,0,1,58,246.82Zm-12.63,5.43a2.51,2.51,0,1,1,2.51,2.51A2.51,2.51,0,0,1,45.36,252.25Z"/><path class="cls-4" d="M182.38,256.57h-.24a1.87,1.87,0,1,0,0-.54h.24ZM184,255a1.34,1.34,0,1,1-1.34,1.34A1.34,1.34,0,0,1,184,255ZM158.1,178.23v-.4h.53v.4a1.87,1.87,0,1,0-.53,0Zm.27-3.18a1.34,1.34,0,1,1-1.34,1.34A1.34,1.34,0,0,1,158.37,175.05Zm11.46,26.19v.52a1.88,1.88,0,1,1,.53,0v-.52h-.12a1.34,1.34,0,1,0-.28,0Zm.41,0h0Zm30.3,41.94a1.87,1.87,0,0,0-1.57.87h-2v0H187L178.2,252H160.32l2.87-4.17h5a1.87,1.87,0,1,0,0-.54h-5.31L159.67,252H144.18v.53h24.53l1.63,4h12V256H170.7l-1.41-3.51h20.86a3,3,0,1,0,0-.53H179l8.24-7.38h11.48l0,0h.19v0h-.21a2.12,2.12,0,0,0-.05.44,1.87,1.87,0,1,0,1.87-1.87Zm-30.48,3a1.34,1.34,0,1,1-1.34,1.34A1.34,1.34,0,0,1,170.06,246.21Zm23.12,3.54a2.51,2.51,0,1,1-2.51,2.5A2.5,2.5,0,0,1,193.18,249.75Zm7.36-3.36a1.34,1.34,0,1,1,1.33-1.34A1.34,1.34,0,0,1,200.54,246.39Zm-45.36-10.77h10.27a1.88,1.88,0,1,0,0-.53h-3.87l1.38-4.48h19.18a1.87,1.87,0,1,0,0-.53H162.56l-1.54,5h-6.37v4.28h-4.5V224.28h0V224h0v.24a1.87,1.87,0,1,0-.53,0V224h0v.24h0v15.09h-5.44v.54h11Zm10.79-.44a1.34,1.34,0,1,1,0,.35ZM184,229a1.34,1.34,0,1,1-1.34,1.34A1.34,1.34,0,0,1,184,229Zm-35.43-6.58a1.34,1.34,0,1,1,1.34,1.34A1.34,1.34,0,0,1,148.55,222.43Zm41.85,13.74h-.25a3,3,0,1,0,0-.53h.25Zm2.78-2.77a2.51,2.51,0,1,1-2.51,2.5A2.5,2.5,0,0,1,193.18,233.4Zm-34,9h20.37a1.87,1.87,0,1,0,0-.53h-7.48l2.73-5.74H190.4v-.53H174.48l-3,6.27H159l-3.93,3.77H144.18v.53h11.1Zm22.21-1.6a1.34,1.34,0,1,1-1.34,1.34A1.34,1.34,0,0,1,181.41,240.84Zm7,25.73a3,3,0,0,0-3,2.77H154.71l-3.84-4.21h4a1.87,1.87,0,1,0,0-.53H144.18v.53h6l4.32,4.74h13.72v3.41a1.88,1.88,0,1,0,.53,0v-3.41h16.61a3,3,0,1,0,3-3.3Zm-31.68-3a1.34,1.34,0,1,1-1.34,1.34A1.34,1.34,0,0,1,156.68,263.53Zm13.11,11.6a1.34,1.34,0,1,1-1.33-1.34A1.34,1.34,0,0,1,169.79,275.13Zm18.57-3a2.51,2.51,0,1,1,2.5-2.51A2.52,2.52,0,0,1,188.36,272.11Zm-33.68-44a1.88,1.88,0,0,0,1.85-1.61h6.21l3.37-5H176.2a1.86,1.86,0,1,0-.11-.62s0,.06,0,.09H165.83l-3.37,5h-5.93a1.87,1.87,0,1,0-1.85,2.14ZM178,219.49a1.34,1.34,0,1,1-1.34,1.34A1.34,1.34,0,0,1,178,219.49Zm-23.28,5.4a1.34,1.34,0,1,1-1.34,1.34A1.34,1.34,0,0,1,154.68,224.89Zm42.87,37.21a1.85,1.85,0,0,0-1.58.9H162.13l-2.85-4.17h4.61a1.87,1.87,0,1,0,0-.54H144.18v.54h14.45l3.22,4.7h33.89a1.61,1.61,0,0,0-.06.44,1.87,1.87,0,1,0,1.87-1.87Zm-31.81-4.88a1.34,1.34,0,1,1-1.34,1.34A1.34,1.34,0,0,1,165.74,257.22Zm31.81,8.09a1.34,1.34,0,1,1,1.34-1.34A1.34,1.34,0,0,1,197.55,265.31Zm-38.92-87.46h-.53v.38h0V201l4.47,2.5v7.81h-2.25v7.29h0v.29h0v-.29a1.88,1.88,0,1,0,.53,0v.29h0v-.29h0v-6.76h20.36l3-6.48a2.12,2.12,0,0,0,.44.05,1.88,1.88,0,1,0-.93-.25l-2.83,6.15h-10.5v-9.5h0v-.51h-.53v.51h0v9.5H163.1v-8.12l-4.47-2.5V178.23h0Zm3.29,42.54a1.34,1.34,0,1,1-1.33-1.33A1.34,1.34,0,0,1,161.92,220.39Zm21.36-16.9a1.34,1.34,0,1,1,1.34,1.34A1.34,1.34,0,0,1,183.28,203.49Z"/><path class="cls-4" d="M182.38,256.57h-.24a1.87,1.87,0,1,0,0-.54h.24ZM184,255a1.34,1.34,0,1,1-1.34,1.34A1.34,1.34,0,0,1,184,255ZM158.1,178.23v-.4h.53v.4a1.87,1.87,0,1,0-.53,0Zm.27-3.18a1.34,1.34,0,1,1-1.34,1.34A1.34,1.34,0,0,1,158.37,175.05Zm11.46,26.19v.52a1.88,1.88,0,1,1,.53,0v-.52h-.12a1.34,1.34,0,1,0-.28,0Zm.41,0h0Zm30.3,41.94a1.87,1.87,0,0,0-1.57.87h-2v0H187L178.2,252H160.32l2.87-4.17h5a1.87,1.87,0,1,0,0-.54h-5.31L159.67,252H144.18v.53h24.53l1.63,4h12V256H170.7l-1.41-3.51h20.86a3,3,0,1,0,0-.53H179l8.24-7.38h11.48l0,0h.19v0h-.21a2.12,2.12,0,0,0-.05.44,1.87,1.87,0,1,0,1.87-1.87Zm-30.48,3a1.34,1.34,0,1,1-1.34,1.34A1.34,1.34,0,0,1,170.06,246.21Zm23.12,3.54a2.51,2.51,0,1,1-2.51,2.5A2.5,2.5,0,0,1,193.18,249.75Zm7.36-3.36a1.34,1.34,0,1,1,1.33-1.34A1.34,1.34,0,0,1,200.54,246.39Zm-45.36-10.77h10.27a1.88,1.88,0,1,0,0-.53h-3.87l1.38-4.48h19.18a1.87,1.87,0,1,0,0-.53H162.56l-1.54,5h-6.37v4.28h-4.5V224.28h0V224h0v.24a1.87,1.87,0,1,0-.53,0V224h0v.24h0v15.09h-5.44v.54h11Zm10.79-.44a1.34,1.34,0,1,1,0,.35ZM184,229a1.34,1.34,0,1,1-1.34,1.34A1.34,1.34,0,0,1,184,229Zm-35.43-6.58a1.34,1.34,0,1,1,1.34,1.34A1.34,1.34,0,0,1,148.55,222.43Zm41.85,13.74h-.25a3,3,0,1,0,0-.53h.25Zm2.78-2.77a2.51,2.51,0,1,1-2.51,2.5A2.5,2.5,0,0,1,193.18,233.4Zm-34,9h20.37a1.87,1.87,0,1,0,0-.53h-7.48l2.73-5.74H190.4v-.53H174.48l-3,6.27H159l-3.93,3.77H144.18v.53h11.1Zm22.21-1.6a1.34,1.34,0,1,1-1.34,1.34A1.34,1.34,0,0,1,181.41,240.84Zm7,25.73a3,3,0,0,0-3,2.77H154.71l-3.84-4.21h4a1.87,1.87,0,1,0,0-.53H144.18v.53h6l4.32,4.74h13.72v3.41a1.88,1.88,0,1,0,.53,0v-3.41h16.61a3,3,0,1,0,3-3.3Zm-31.68-3a1.34,1.34,0,1,1-1.34,1.34A1.34,1.34,0,0,1,156.68,263.53Zm13.11,11.6a1.34,1.34,0,1,1-1.33-1.34A1.34,1.34,0,0,1,169.79,275.13Zm18.57-3a2.51,2.51,0,1,1,2.5-2.51A2.52,2.52,0,0,1,188.36,272.11Zm-33.68-44a1.88,1.88,0,0,0,1.85-1.61h6.21l3.37-5H176.2a1.86,1.86,0,1,0-.11-.62s0,.06,0,.09H165.83l-3.37,5h-5.93a1.87,1.87,0,1,0-1.85,2.14ZM178,219.49a1.34,1.34,0,1,1-1.34,1.34A1.34,1.34,0,0,1,178,219.49Zm-23.28,5.4a1.34,1.34,0,1,1-1.34,1.34A1.34,1.34,0,0,1,154.68,224.89Zm42.87,37.21a1.85,1.85,0,0,0-1.58.9H162.13l-2.85-4.17h4.61a1.87,1.87,0,1,0,0-.54H144.18v.54h14.45l3.22,4.7h33.89a1.61,1.61,0,0,0-.06.44,1.87,1.87,0,1,0,1.87-1.87Zm-31.81-4.88a1.34,1.34,0,1,1-1.34,1.34A1.34,1.34,0,0,1,165.74,257.22Zm31.81,8.09a1.34,1.34,0,1,1,1.34-1.34A1.34,1.34,0,0,1,197.55,265.31Zm-38.92-87.46h-.53v.38h0V201l4.47,2.5v7.81h-2.25v7.29h0v.29h0v-.29a1.88,1.88,0,1,0,.53,0v.29h0v-.29h0v-6.76h20.36l3-6.48a2.12,2.12,0,0,0,.44.05,1.88,1.88,0,1,0-.93-.25l-2.83,6.15h-10.5v-9.5h0v-.51h-.53v.51h0v9.5H163.1v-8.12l-4.47-2.5V178.23h0Zm3.29,42.54a1.34,1.34,0,1,1-1.33-1.33A1.34,1.34,0,0,1,161.92,220.39Zm21.36-16.9a1.34,1.34,0,1,1,1.34,1.34A1.34,1.34,0,0,1,183.28,203.49Z"/><path class="cls-5" d="M120.33,201a1.86,1.86,0,0,0-.26,3.71v23.73h.53V204.68a1.86,1.86,0,0,0-.27-3.71Zm0,3.21a1.34,1.34,0,1,1,1.34-1.34A1.34,1.34,0,0,1,120.33,204.18Zm22.62,13a1.87,1.87,0,1,0-2.14,1.85v9a1.88,1.88,0,1,0,.53,0v-9A1.88,1.88,0,0,0,143,217.23Zm-3.21,0a1.34,1.34,0,1,1,1.34,1.34A1.34,1.34,0,0,1,139.74,217.23Zm2.68,12.68a1.34,1.34,0,1,1-1.34-1.33A1.34,1.34,0,0,1,142.42,229.91Zm-33.3-23.53a1.86,1.86,0,0,0-1.84,1.61h-3.06v-6.94a3,3,0,1,0-.53,0v11.06l-5.12-7.93H90.4v-1.76l8.47-7.24V190a1.88,1.88,0,1,0-.53,0v5l-7.94,6.79V197.3L95.11,193v-9.34a1.87,1.87,0,1,0-.54,0v9.11l-4.17,3.83V176.2a3,3,0,1,0-.53,0v28H80.81V201l4.79-2v-5.19a1.87,1.87,0,1,0-.53,0v4.83l-4.26,1.76V188.13a3,3,0,1,0-.54,0v16.58h18l9.17,14.23v9.47H108v-9.63l-3.77-5.84v-4.42h3.06a1.87,1.87,0,1,0,1.84-2.14ZM97.33,188.1a1.34,1.34,0,1,1,1.34,1.33A1.34,1.34,0,0,1,97.33,188.1Zm-3.83-6.32a1.34,1.34,0,1,1,1.34,1.34A1.34,1.34,0,0,1,93.5,181.78Zm-5.87-8.6a2.51,2.51,0,1,1,2.51,2.5A2.51,2.51,0,0,1,87.63,173.18ZM84,192a1.34,1.34,0,1,1,1.34,1.34A1.34,1.34,0,0,1,84,192Zm-6-6.86a2.5,2.5,0,1,1,2.5,2.51A2.5,2.5,0,0,1,78,185.1ZM101.45,198a2.51,2.51,0,1,1,2.5,2.51A2.5,2.5,0,0,1,101.45,198Zm7.67,11.57a1.34,1.34,0,1,1,1.34-1.34A1.34,1.34,0,0,1,109.12,209.59Zm-5.67-26.9a1.87,1.87,0,1,0-1.87-1.87A1.87,1.87,0,0,0,103.45,182.69Zm0-3.21a1.34,1.34,0,1,1-1.34,1.34A1.34,1.34,0,0,1,103.45,179.48Zm39,10.61a1.87,1.87,0,0,0-.27,3.72v8.05l-3.5,4.84v6.05h-5.5v-7.28l4.18-5.47V182.18a3,3,0,1,0-.53,0v17.64l-4.18,5.47v23.12h.53V213.29h6v-6.42l3.5-4.84v-8.22a1.87,1.87,0,0,0-.26-3.72Zm-7.86-10.93a2.51,2.51,0,1,1,2.51,2.5A2.51,2.51,0,0,1,134.62,179.16Zm7.86,14.14a1.34,1.34,0,1,1,1.33-1.34A1.34,1.34,0,0,1,142.48,193.3Zm11.06,21V201l-3.5-4.11v-10a1.82,1.82,0,1,0-.53,0v10.22l3.5,4.11v3.18h-7v6.39a1.88,1.88,0,1,0,.53,0v-5.85H153v9.42a1.88,1.88,0,1,0,.53,0Zm-5-29.31a1.34,1.34,0,1,1,1.34,1.34A1.34,1.34,0,0,1,148.55,185Zm-.93,27.59a1.34,1.34,0,1,1-1.34-1.34A1.34,1.34,0,0,1,147.62,212.58Zm5.66,4.9a1.34,1.34,0,1,1,1.34-1.33A1.34,1.34,0,0,1,153.28,217.48Zm-24.86-41.8a1.87,1.87,0,0,0-.27,3.72v5.44h-4.86V171.67a3,3,0,1,0-.53,0v1.68H105.82v-2.28a1.87,1.87,0,1,0-.53,0v2.82h17.47v15.48l3.62,4.53v34.52h.53v-34.7l-3.62-4.54v-3.8h5.4v-6a1.87,1.87,0,0,0-.27-3.72Zm-24.2-6.46a1.34,1.34,0,1,1,1.34,1.34A1.34,1.34,0,0,1,104.22,169.22Zm16.38-.57a2.51,2.51,0,1,1,2.51,2.5A2.51,2.51,0,0,1,120.6,168.65Zm7.82,10.24a1.34,1.34,0,1,1,1.34-1.33A1.34,1.34,0,0,1,128.42,178.89Zm-10,14.21a1.87,1.87,0,1,0-.53,0v3.7l-3.6,3.77v-14a3,3,0,1,0-.53,0v41.8h.53V201.34l4.13-4.33Zm-6.9-9.51A2.51,2.51,0,1,1,114,186.1,2.51,2.51,0,0,1,111.52,183.59Zm5.3,7.66a1.34,1.34,0,1,1,1.34,1.34A1.34,1.34,0,0,1,116.82,191.25Z"/><path class="cls-5" d="M120.33,201a1.86,1.86,0,0,0-.26,3.71v23.73h.53V204.68a1.86,1.86,0,0,0-.27-3.71Zm0,3.21a1.34,1.34,0,1,1,1.34-1.34A1.34,1.34,0,0,1,120.33,204.18Zm22.62,13a1.87,1.87,0,1,0-2.14,1.85v9a1.88,1.88,0,1,0,.53,0v-9A1.88,1.88,0,0,0,143,217.23Zm-3.21,0a1.34,1.34,0,1,1,1.34,1.34A1.34,1.34,0,0,1,139.74,217.23Zm2.68,12.68a1.34,1.34,0,1,1-1.34-1.33A1.34,1.34,0,0,1,142.42,229.91Zm-33.3-23.53a1.86,1.86,0,0,0-1.84,1.61h-3.06v-6.94a3,3,0,1,0-.53,0v11.06l-5.12-7.93H90.4v-1.76l8.47-7.24V190a1.88,1.88,0,1,0-.53,0v5l-7.94,6.79V197.3L95.11,193v-9.34a1.87,1.87,0,1,0-.54,0v9.11l-4.17,3.83V176.2a3,3,0,1,0-.53,0v28H80.81V201l4.79-2v-5.19a1.87,1.87,0,1,0-.53,0v4.83l-4.26,1.76V188.13a3,3,0,1,0-.54,0v16.58h18l9.17,14.23v9.47H108v-9.63l-3.77-5.84v-4.42h3.06a1.87,1.87,0,1,0,1.84-2.14ZM97.33,188.1a1.34,1.34,0,1,1,1.34,1.33A1.34,1.34,0,0,1,97.33,188.1Zm-3.83-6.32a1.34,1.34,0,1,1,1.34,1.34A1.34,1.34,0,0,1,93.5,181.78Zm-5.87-8.6a2.51,2.51,0,1,1,2.51,2.5A2.51,2.51,0,0,1,87.63,173.18ZM84,192a1.34,1.34,0,1,1,1.34,1.34A1.34,1.34,0,0,1,84,192Zm-6-6.86a2.5,2.5,0,1,1,2.5,2.51A2.5,2.5,0,0,1,78,185.1ZM101.45,198a2.51,2.51,0,1,1,2.5,2.51A2.5,2.5,0,0,1,101.45,198Zm7.67,11.57a1.34,1.34,0,1,1,1.34-1.34A1.34,1.34,0,0,1,109.12,209.59Zm-5.67-26.9a1.87,1.87,0,1,0-1.87-1.87A1.87,1.87,0,0,0,103.45,182.69Zm0-3.21a1.34,1.34,0,1,1-1.34,1.34A1.34,1.34,0,0,1,103.45,179.48Zm39,10.61a1.87,1.87,0,0,0-.27,3.72v8.05l-3.5,4.84v6.05h-5.5v-7.28l4.18-5.47V182.18a3,3,0,1,0-.53,0v17.64l-4.18,5.47v23.12h.53V213.29h6v-6.42l3.5-4.84v-8.22a1.87,1.87,0,0,0-.26-3.72Zm-7.86-10.93a2.51,2.51,0,1,1,2.51,2.5A2.51,2.51,0,0,1,134.62,179.16Zm7.86,14.14a1.34,1.34,0,1,1,1.33-1.34A1.34,1.34,0,0,1,142.48,193.3Zm11.06,21V201l-3.5-4.11v-10a1.82,1.82,0,1,0-.53,0v10.22l3.5,4.11v3.18h-7v6.39a1.88,1.88,0,1,0,.53,0v-5.85H153v9.42a1.88,1.88,0,1,0,.53,0Zm-5-29.31a1.34,1.34,0,1,1,1.34,1.34A1.34,1.34,0,0,1,148.55,185Zm-.93,27.59a1.34,1.34,0,1,1-1.34-1.34A1.34,1.34,0,0,1,147.62,212.58Zm5.66,4.9a1.34,1.34,0,1,1,1.34-1.33A1.34,1.34,0,0,1,153.28,217.48Zm-24.86-41.8a1.87,1.87,0,0,0-.27,3.72v5.44h-4.86V171.67a3,3,0,1,0-.53,0v1.68H105.82v-2.28a1.87,1.87,0,1,0-.53,0v2.82h17.47v15.48l3.62,4.53v34.52h.53v-34.7l-3.62-4.54v-3.8h5.4v-6a1.87,1.87,0,0,0-.27-3.72Zm-24.2-6.46a1.34,1.34,0,1,1,1.34,1.34A1.34,1.34,0,0,1,104.22,169.22Zm16.38-.57a2.51,2.51,0,1,1,2.51,2.5A2.51,2.51,0,0,1,120.6,168.65Zm7.82,10.24a1.34,1.34,0,1,1,1.34-1.33A1.34,1.34,0,0,1,128.42,178.89Zm-10,14.21a1.87,1.87,0,1,0-.53,0v3.7l-3.6,3.77v-14a3,3,0,1,0-.53,0v41.8h.53V201.34l4.13-4.33Zm-6.9-9.51A2.51,2.51,0,1,1,114,186.1,2.51,2.51,0,0,1,111.52,183.59Zm5.3,7.66a1.34,1.34,0,1,1,1.34,1.34A1.34,1.34,0,0,1,116.82,191.25Z"/><path class="cls-6" d="M113.76,314.29v-.42a1.88,1.88,0,1,0,.53,0v.42Zm1.61,1.42a1.34,1.34,0,1,1-1.34-1.33A1.34,1.34,0,0,1,115.37,315.71ZM108,302.78V276.1h-.54V284h-5.14a1.88,1.88,0,1,0,0,.53h5.14v7.1l-3.28,3.7V309h-3.65v-9.92a1.88,1.88,0,1,0-.53,0V309H95.8v6.84a1.87,1.87,0,1,0,.54,0v-6.31h7.83v13.89a3,3,0,1,0,.53,0V295.49l2.75-3.1v10.39a1.87,1.87,0,1,0,.54,0Zm-7.52-17.23a1.34,1.34,0,1,1,1.34-1.33A1.34,1.34,0,0,1,100.47,285.55Zm-3.06,32.12a1.34,1.34,0,1,1-1.34-1.33A1.34,1.34,0,0,1,97.41,317.67Zm1.5-20.45a1.34,1.34,0,1,1,1.34,1.34A1.34,1.34,0,0,1,98.91,297.22Zm8,29.21a2.51,2.51,0,1,1-2.5-2.5A2.51,2.51,0,0,1,106.94,326.43Zm.78-20.47a1.34,1.34,0,1,1,1.34-1.34A1.34,1.34,0,0,1,107.72,306ZM114,290.4a1.86,1.86,0,0,0,.26-3.71V276.1h-.53v10.59a1.86,1.86,0,0,0,.27,3.71Zm0-3.21a1.34,1.34,0,1,1-1.34,1.34A1.35,1.35,0,0,1,114,287.19Zm47.45,26.68v-.94h0V292.2h-7.79v-2.61l-5.86-6.25v-8.72a1.88,1.88,0,1,0-.53,0v8.93l5.86,6.25v13.53h0v.81a1.87,1.87,0,1,0,.54,0v.48h0v-.48h0V292.73H161v21.14h0v.24h0v-.24a1.87,1.87,0,0,0,.27,3.72,1.87,1.87,0,0,0,.26-3.72Zm-15.26-41.09a1.34,1.34,0,1,1,1.34,1.34A1.35,1.35,0,0,1,146.22,272.78Zm8.54,33.2a1.34,1.34,0,1,1-1.34-1.34A1.34,1.34,0,0,1,154.76,306Zm6.46,11.07a1.34,1.34,0,1,1,1.33-1.34A1.34,1.34,0,0,1,161.22,317.05ZM185.06,288a1.87,1.87,0,0,0-.75.16l-3-4.2H160.12l-3.81-5.05a1.87,1.87,0,1,0-1.25.48,1.92,1.92,0,0,0,.8-.18l4,5.28h11.37v6.94h-5a1.88,1.88,0,1,0,0,.53h5v9.49a1.88,1.88,0,1,0,.53,0v-17H181l2.85,4a1.84,1.84,0,0,0-.67,1.42,1.87,1.87,0,1,0,1.87-1.87Zm-30-9.14a1.34,1.34,0,1,1,1.34-1.34A1.34,1.34,0,0,1,155.06,278.85Zm10.63,13a1.34,1.34,0,1,1,0-.35Zm7.15,11.43A1.34,1.34,0,1,1,171.5,302,1.34,1.34,0,0,1,172.84,303.29Zm12.22-12.09a1.34,1.34,0,1,1,1.33-1.34A1.34,1.34,0,0,1,185.06,291.2Zm-38,21.59v-1h0v-9.44h-8.37v-9.21l-5.51-2.65v-6.66L142,288v5.26a1.87,1.87,0,1,0,.54,0v-5.6l-9.3-4.41V276.1h-.53v14.77l5.51,2.64v29h0v.91a3,3,0,1,0,.53,0v.25h0v-.25h0V302.92h7.84v9.87h0V313h0v-.24a1.87,1.87,0,1,0,.53,0Zm-3.51-17.66a1.34,1.34,0,1,1-1.34-1.34A1.34,1.34,0,0,1,143.58,295.13ZM141,326.43a2.51,2.51,0,1,1-2.5-2.5A2.51,2.51,0,0,1,141,326.43ZM146.82,316a1.34,1.34,0,1,1,1.34-1.34A1.34,1.34,0,0,1,146.82,316Zm-18.31,2.82v-9.55l-7.91-3.43V275.9h-.53v21.5h-6.31v16.47l.27,0a2.06,2.06,0,0,1,.26,0V297.94h5.78v31.94a3,3,0,1,0,.53,0V306.39l7.38,3.2v9.2a1.88,1.88,0,1,0,.53,0Zm-5.67,14.12a2.51,2.51,0,1,1-2.51-2.51A2.5,2.5,0,0,1,122.84,332.91ZM128.25,322a1.34,1.34,0,1,1,1.33-1.33A1.34,1.34,0,0,1,128.25,322Zm5.42-11.31v-7.91h-3.55V290l-3.21-1.6V275.9h-.53v19.58a1.87,1.87,0,1,0,.53,0V289l2.67,1.34v13h3.56v7.38a1.88,1.88,0,1,0,.53,0ZM128,297.32a1.34,1.34,0,1,1-1.34-1.33A1.34,1.34,0,0,1,128,297.32Zm5.43,16.52a1.34,1.34,0,1,1,1.34-1.33A1.34,1.34,0,0,1,133.41,313.84Z"/><path class="cls-6" d="M114,313.84l-.27,0a1.88,1.88,0,1,0,.53,0l-.26,0Zm1.34,1.87a1.34,1.34,0,1,1-1.34-1.33A1.34,1.34,0,0,1,115.37,315.71ZM108,302.78V276.1h-.54V284h-5.14a1.88,1.88,0,1,0,0,.53h5.14v7.1l-3.28,3.7V309h-3.65v-9.92a1.88,1.88,0,1,0-.53,0V309H95.8v6.84a1.87,1.87,0,1,0,.54,0v-6.31h7.83v13.89a3,3,0,1,0,.53,0V295.49l2.75-3.1v10.39a1.87,1.87,0,1,0,.54,0Zm-7.52-17.23a1.34,1.34,0,1,1,1.34-1.33A1.34,1.34,0,0,1,100.47,285.55Zm-3.06,32.12a1.34,1.34,0,1,1-1.34-1.33A1.34,1.34,0,0,1,97.41,317.67Zm1.5-20.45a1.34,1.34,0,1,1,1.34,1.34A1.34,1.34,0,0,1,98.91,297.22Zm8,29.21a2.51,2.51,0,1,1-2.5-2.5A2.51,2.51,0,0,1,106.94,326.43Zm.78-20.47a1.34,1.34,0,1,1,1.34-1.34A1.34,1.34,0,0,1,107.72,306ZM114,290.4a1.86,1.86,0,0,0,.26-3.71V276.1h-.53v10.59a1.86,1.86,0,0,0,.27,3.71Zm0-3.21a1.34,1.34,0,1,1-1.34,1.34A1.35,1.35,0,0,1,114,287.19Zm47.45,26.68v-.94h0V292.2h-7.79v-2.61l-5.86-6.25v-8.72a1.88,1.88,0,1,0-.53,0v8.93l5.86,6.25v13.53h0v.81a1.87,1.87,0,1,0,.54,0v.48h0v-.48h0V292.73H161v21.14h0v.24h0v-.24a1.87,1.87,0,0,0,.27,3.72,1.87,1.87,0,0,0,.26-3.72Zm-15.26-41.09a1.34,1.34,0,1,1,1.34,1.34A1.35,1.35,0,0,1,146.22,272.78Zm8.54,33.2a1.34,1.34,0,1,1-1.34-1.34A1.34,1.34,0,0,1,154.76,306Zm6.46,11.07a1.34,1.34,0,1,1,1.33-1.34A1.34,1.34,0,0,1,161.22,317.05ZM185.06,288a1.87,1.87,0,0,0-.75.16l-3-4.2H160.12l-3.81-5.05a1.87,1.87,0,1,0-1.25.48,1.92,1.92,0,0,0,.8-.18l4,5.28h11.37v6.94h-5a1.88,1.88,0,1,0,0,.53h5v9.49a1.88,1.88,0,1,0,.53,0v-17H181l2.85,4a1.84,1.84,0,0,0-.67,1.42,1.87,1.87,0,1,0,1.87-1.87Zm-30-9.14a1.34,1.34,0,1,1,1.34-1.34A1.34,1.34,0,0,1,155.06,278.85Zm10.63,13a1.34,1.34,0,1,1,0-.35Zm7.15,11.43A1.34,1.34,0,1,1,171.5,302,1.34,1.34,0,0,1,172.84,303.29Zm12.22-12.09a1.34,1.34,0,1,1,1.33-1.34A1.34,1.34,0,0,1,185.06,291.2Zm-38,21.59v-1h0v-9.44h-8.37v-9.21l-5.51-2.65v-6.66L142,288v5.26a1.87,1.87,0,1,0,.54,0v-5.6l-9.3-4.41V276.1h-.53v14.77l5.51,2.64v29h0v.91a3,3,0,1,0,.53,0v.25h0v-.25h0V302.92h7.84v9.87h0V313h0v-.24a1.87,1.87,0,1,0,.53,0Zm-3.51-17.66a1.34,1.34,0,1,1-1.34-1.34A1.34,1.34,0,0,1,143.58,295.13ZM141,326.43a2.51,2.51,0,1,1-2.5-2.5A2.51,2.51,0,0,1,141,326.43ZM146.82,316a1.34,1.34,0,1,1,1.34-1.34A1.34,1.34,0,0,1,146.82,316Zm-18.31,2.82v-9.55l-7.91-3.43V275.9h-.53v21.5h-6.31v16.47l.27,0a2.06,2.06,0,0,1,.26,0V297.94h5.78v31.94a3,3,0,1,0,.53,0V306.39l7.38,3.2v9.2a1.88,1.88,0,1,0,.53,0Zm-5.67,14.12a2.51,2.51,0,1,1-2.51-2.51A2.5,2.5,0,0,1,122.84,332.91ZM128.25,322a1.34,1.34,0,1,1,1.33-1.33A1.34,1.34,0,0,1,128.25,322Zm5.42-11.31v-7.91h-3.55V290l-3.21-1.6V275.9h-.53v19.58a1.87,1.87,0,1,0,.53,0V289l2.67,1.34v13h3.56v7.38a1.88,1.88,0,1,0,.53,0ZM128,297.32a1.34,1.34,0,1,1-1.34-1.33A1.34,1.34,0,0,1,128,297.32Zm5.43,16.52a1.34,1.34,0,1,1,1.34-1.33A1.34,1.34,0,0,1,133.41,313.84Z"/><rect class="cls-7" x="106.12" y="228.41" width="3.21" height="1.94"/><rect class="cls-8" x="112.42" y="228.41" width="3.21" height="1.94"/><rect class="cls-9" x="118.73" y="228.41" width="3.21" height="1.94"/><rect class="cls-10" x="125.04" y="228.41" width="3.21" height="1.94"/><rect class="cls-11" x="131.34" y="228.41" width="3.21" height="1.94"/><g class="cls-12"><rect class="cls-13" x="106.12" y="229.65" width="3.21" height="0.7"/><rect class="cls-14" x="112.42" y="229.65" width="3.21" height="0.7"/><rect class="cls-15" x="118.73" y="229.65" width="3.21" height="0.7"/><rect class="cls-16" x="125.04" y="229.65" width="3.21" height="0.7"/><rect class="cls-17" x="131.34" y="229.65" width="3.21" height="0.7"/></g><path class="cls-18" d="M98.43,263.26v3.21H96.49v-3.21ZM96.49,257v3.2h1.94V257Zm0-6.31v3.21h1.94v-3.21Zm0-6.31v3.21h1.94v-3.21Zm0-6.3v3.2h1.94V238Z"/><path class="cls-19" d="M98.43,263.26v3.21h-.75v-3.21Zm-.75-6.3v3.2h.75V257Zm0-6.31v3.21h.75v-3.21Zm0-6.31v3.21h.75v-3.21Zm0-6.3v3.2h.75V238Z"/><rect class="cls-20" x="141.6" y="263.9" width="3.21" height="1.94" transform="translate(-121.66 408.08) rotate(-90)"/><rect class="cls-21" x="141.6" y="257.59" width="3.21" height="1.94" transform="translate(-115.35 401.77) rotate(-90)"/><rect class="cls-22" x="141.6" y="251.29" width="3.21" height="1.94" transform="translate(-109.05 395.46) rotate(-90)"/><rect class="cls-23" x="141.6" y="244.98" width="3.21" height="1.94" transform="translate(-102.74 389.16) rotate(-90)"/><rect class="cls-24" x="141.6" y="238.67" width="3.21" height="1.94" transform="translate(-96.43 382.85) rotate(-90)"/><rect class="cls-25" x="141" y="264.51" width="3.21" height="0.72" transform="translate(-122.27 407.47) rotate(-90)"/><rect class="cls-26" x="141" y="258.2" width="3.21" height="0.72" transform="translate(-115.96 401.16) rotate(-90)"/><rect class="cls-27" x="141" y="251.89" width="3.21" height="0.72" transform="translate(-109.65 394.85) rotate(-90)"/><rect class="cls-28" x="141" y="245.59" width="3.21" height="0.72" transform="translate(-103.35 388.55) rotate(-90)"/><rect class="cls-29" x="141" y="239.28" width="3.21" height="0.72" transform="translate(-97.04 382.24) rotate(-90)"/><rect class="cls-30" x="131.34" y="274.16" width="3.21" height="1.94" transform="translate(265.9 550.26) rotate(180)"/><rect class="cls-31" x="125.04" y="274.16" width="3.21" height="1.94" transform="translate(253.28 550.26) rotate(180)"/><rect class="cls-32" x="118.73" y="274.16" width="3.21" height="1.94" transform="translate(240.67 550.26) rotate(180)"/><rect class="cls-33" x="112.42" y="274.16" width="3.21" height="1.94" transform="translate(228.06 550.26) rotate(180)"/><rect class="cls-34" x="106.12" y="274.16" width="3.21" height="1.94" transform="translate(215.44 550.26) rotate(180)"/><rect class="cls-35" x="131.34" y="274.16" width="3.21" height="0.69" transform="translate(265.9 549.01) rotate(180)"/><rect class="cls-36" x="125.04" y="274.16" width="3.21" height="0.69" transform="translate(253.28 549.01) rotate(180)"/><rect class="cls-37" x="118.73" y="274.16" width="3.21" height="0.69" transform="translate(240.67 549.01) rotate(180)"/><rect class="cls-38" x="112.42" y="274.16" width="3.21" height="0.69" transform="translate(228.06 549.01) rotate(180)"/><rect class="cls-39" x="106.12" y="274.16" width="3.21" height="0.69" transform="translate(215.44 549.01) rotate(180)"/></g><path class="cls-40" d="M133.76,273.05V242.23h-8.38v-5.08c.47-.46,1-.93,1.45-1.42l.68-.66h0l1.87-1.87,6.94,7.25v33.16C135.5,273.47,134.63,273.27,133.76,273.05Zm-7.4-12H112.49v2h13.87Zm11.23,5.9v2.55h6.65v-35.7L136,225.15l-.65.65a1.43,1.43,0,0,1-.25,1.69l-1.77,1.78v6.3h0v-.12l.11.12h8.28v31.35Zm-4.29-31.35h0Zm-6.94,19.6H112.49v2h13.87ZM113,226.82H124.6l2.43-2.56H110.47v5.38H113Zm13.34,22.49H112.49v2h13.87Zm-13.72,20c-13.53-10.16-21.2-22.78-17.13-28.19a6.52,6.52,0,0,1,4.49-2.33V235c-3.94-.2-7,.77-8.72,3-4.75,6.32,3.29,20.39,18,31.41,13.61,10.22,28.14,14.24,34,9.72C138,282.64,125,278.63,112.64,269.34ZM146.06,259v7.43c1.39,2.7,1.71,5,.72,6.59-2.74,4.44-14.69,2.25-28.68-4.69,1.05.77,2.16,1.51,3.32,2.22,12.29,7.59,25.2,9,28.83,3.11C152.49,270.07,150.67,264.53,146.06,259Zm-40.95,14.56v-5.88c-.88-.71-1.73-1.47-2.56-2.23v10.65h14.79q-2.15-1.17-4.29-2.54Zm0-40.11h13.56l-.06-.37,2.08-2.19H102.55v27.32c.79.93,1.64,1.87,2.56,2.8Z"/><path class="cls-41" d="M135.3,222.36l.9.89a.4.4,0,0,1,0,.56l-1.43,1.42-1.44-1.45,1.42-1.42A.38.38,0,0,1,135.3,222.36Zm-24.81,25.5.22.21a.15.15,0,0,1,0,.2h0l-.46.35a.15.15,0,0,1-.2,0l-.1-.1a.15.15,0,0,1,0-.2l.35-.46a.13.13,0,0,1,.19,0h0Zm13-15.69,2.9,2.9c-5.73,5.63-9.73,9.25-15.34,12.94l-.52-.52C114.22,241.74,117.85,237.8,123.48,232.17Zm6.82-8.76.68.68-1.48,1.48-.26-.26a.5.5,0,0,0-.7,0L119.89,234a.85.85,0,0,1-.43-.61l9.47-10a1,1,0,0,1,1.36,0Zm2.22.63,2,2a.65.65,0,0,1,0,.91l-7.68,7.68-1.18-1.19,6.95-7a.28.28,0,0,0,0-.41l-.12-.12a.28.28,0,0,0-.4,0h0l-6.95,7-1.18-1.18,7.67-7.68a.65.65,0,0,1,.91,0Z"/><path class="cls-42" d="M225.05,225.72a17.69,17.69,0,0,1,4.8.57,7.79,7.79,0,0,1,3.27,1.76,6.92,6.92,0,0,1,1.88,3,13.89,13.89,0,0,1,.61,4.37v4.69a13.82,13.82,0,0,1-.61,4.36,7,7,0,0,1-1.88,3,7.78,7.78,0,0,1-3.27,1.75,17.69,17.69,0,0,1-4.8.57H208.91a.91.91,0,0,1-1-1V226.75a.91.91,0,0,1,1-1Zm-11.9,18.9a.4.4,0,0,0,.45.45h11.32a9.77,9.77,0,0,0,2.55-.28,3.72,3.72,0,0,0,1.67-.89,3.48,3.48,0,0,0,.91-1.66,9.77,9.77,0,0,0,.28-2.55v-3.8a9.77,9.77,0,0,0-.28-2.55,3.4,3.4,0,0,0-.91-1.65,3.64,3.64,0,0,0-1.67-.9,9.77,9.77,0,0,0-2.55-.28H213.6c-.3,0-.45.16-.45.49Z"/><path class="cls-43" d="M260,225.72a17.44,17.44,0,0,1,4.47.5,6.94,6.94,0,0,1,3,1.58,6.23,6.23,0,0,1,1.67,2.82,14.59,14.59,0,0,1,.52,4.2v5.94a14.78,14.78,0,0,1-.52,4.22,6.16,6.16,0,0,1-1.67,2.83,6.72,6.72,0,0,1-3,1.57,18,18,0,0,1-4.47.48H249.3a17.76,17.76,0,0,1-4.45-.48,6.7,6.7,0,0,1-3-1.57,6.28,6.28,0,0,1-1.69-2.83,14.38,14.38,0,0,1-.54-4.22v-5.94a14.19,14.19,0,0,1,.54-4.2,6.35,6.35,0,0,1,1.69-2.82,6.92,6.92,0,0,1,3-1.58,17.22,17.22,0,0,1,4.45-.5Zm-15,14.66a9.59,9.59,0,0,0,.23,2.26,3,3,0,0,0,.74,1.45,2.83,2.83,0,0,0,1.39.75,9.2,9.2,0,0,0,2.23.23h10.24a9.2,9.2,0,0,0,2.23-.23,2.91,2.91,0,0,0,1.4-.75,3.16,3.16,0,0,0,.74-1.45,9.64,9.64,0,0,0,.22-2.26V235.2a9.7,9.7,0,0,0-.22-2.26,3.13,3.13,0,0,0-.74-1.44,2.92,2.92,0,0,0-1.4-.76,9.2,9.2,0,0,0-2.23-.23H249.51a9.2,9.2,0,0,0-2.23.23,2.84,2.84,0,0,0-1.39.76,3,3,0,0,0-.74,1.44,9.65,9.65,0,0,0-.23,2.26Z"/><path class="cls-44" d="M298.83,225.72a.67.67,0,0,1,.76.76v3.38c0,.53-.25.79-.76.79H283.48a9.76,9.76,0,0,0-2.22.22,3,3,0,0,0-1.4.76,3.18,3.18,0,0,0-.74,1.44,9.5,9.5,0,0,0-.22,2.27v4.9a9.8,9.8,0,0,0,.22,2.29,3.11,3.11,0,0,0,.74,1.45,2.88,2.88,0,0,0,1.4.76,9.17,9.17,0,0,0,2.22.23h15.35a.67.67,0,0,1,.76.75v3.38a.67.67,0,0,1-.76.76H283.28a17.7,17.7,0,0,1-4.45-.48,6.74,6.74,0,0,1-3-1.57,6.37,6.37,0,0,1-1.69-2.83,14.75,14.75,0,0,1-.53-4.22v-5.94a14.56,14.56,0,0,1,.53-4.2,6.45,6.45,0,0,1,1.69-2.82,7,7,0,0,1,3-1.58,17.17,17.17,0,0,1,4.45-.5Z"/><path class="cls-45" d="M307.73,225.72a.67.67,0,0,1,.76.76v13.76a9.74,9.74,0,0,0,.23,2.29,2.94,2.94,0,0,0,.74,1.45,2.84,2.84,0,0,0,1.39.76,9.2,9.2,0,0,0,2.23.23h9.55a9.2,9.2,0,0,0,2.23-.23,2.84,2.84,0,0,0,1.39-.76,2.93,2.93,0,0,0,.73-1.45,10.44,10.44,0,0,0,.21-2.29V226.48a.67.67,0,0,1,.76-.76h3.76a.67.67,0,0,1,.75.76v14.28A15.18,15.18,0,0,1,332,245a6.27,6.27,0,0,1-1.68,2.83,6.72,6.72,0,0,1-3,1.57,18,18,0,0,1-4.46.48h-9.94a17.76,17.76,0,0,1-4.45-.48,6.7,6.7,0,0,1-3-1.57,6.28,6.28,0,0,1-1.69-2.83,14.38,14.38,0,0,1-.54-4.22V226.48c0-.51.27-.76.8-.76Z"/><path class="cls-46" d="M343.81,225.72a7.12,7.12,0,0,1,1.31.1,2.4,2.4,0,0,1,1,.4,2.82,2.82,0,0,1,.74.79,8.58,8.58,0,0,1,.67,1.33l7.18,16.56a.49.49,0,0,0,.48.31h.41a.51.51,0,0,0,.49-.31l7.17-16.56a9.57,9.57,0,0,1,.67-1.33,2.85,2.85,0,0,1,.75-.79,2.32,2.32,0,0,1,1-.4,6.75,6.75,0,0,1,1.29-.1h3.69a2.9,2.9,0,0,1,2.41.81,4.65,4.65,0,0,1,.63,2.78V249.1c0,.51-.27.76-.8.76H369.3a.67.67,0,0,1-.75-.76v-18c0-.23-.1-.35-.28-.35H368a.44.44,0,0,0-.45.28l-7,15.45a10.21,10.21,0,0,1-.84,1.57,4.83,4.83,0,0,1-.93,1,3,3,0,0,1-1.14.59,5.63,5.63,0,0,1-1.5.17h-1.66a5.63,5.63,0,0,1-1.5-.17,3,3,0,0,1-1.14-.59,4.83,4.83,0,0,1-.93-1,9.41,9.41,0,0,1-.84-1.57l-7-15.45a.44.44,0,0,0-.45-.28h-.31c-.18,0-.28.12-.28.35v18a.67.67,0,0,1-.76.76h-3.51c-.53,0-.8-.25-.8-.76V229.31a4.73,4.73,0,0,1,.62-2.78,3,3,0,0,1,2.45-.81Z"/><path class="cls-47" d="M402.73,225.72c.53,0,.79.25.79.76v3.27c0,.51-.26.76-.79.76H387.65a9.11,9.11,0,0,0-2.22.23,3,3,0,0,0-1.42.76,3,3,0,0,0-.74,1.44,10.4,10.4,0,0,0-.2,2.26v.35h19.48a.67.67,0,0,1,.76.76V239a.67.67,0,0,1-.76.76H383.07v.59a10.34,10.34,0,0,0,.2,2.26,2.68,2.68,0,0,0,2.16,2.2,9.11,9.11,0,0,0,2.22.23h15.08c.53,0,.79.25.79.76v3.27c0,.51-.26.76-.79.76H387.55a17.76,17.76,0,0,1-4.45-.48,6.7,6.7,0,0,1-3-1.57,6.28,6.28,0,0,1-1.69-2.83,14.38,14.38,0,0,1-.54-4.22v-5.94a14.19,14.19,0,0,1,.54-4.2,6.35,6.35,0,0,1,1.69-2.82,6.92,6.92,0,0,1,3-1.58,17.22,17.22,0,0,1,4.45-.5Z"/><path class="cls-48" d="M413.63,225.72a10.69,10.69,0,0,1,1.38.07,2.57,2.57,0,0,1,1,.29,3.22,3.22,0,0,1,.79.62,11,11,0,0,1,.87,1.05l12.83,16.84a.47.47,0,0,0,.45.24h.31c.18,0,.27-.12.27-.35v-18a.67.67,0,0,1,.76-.76h3.63a.67.67,0,0,1,.75.76v19.8a4,4,0,0,1-.75,2.84,3.23,3.23,0,0,1-2.35.74h-3a10,10,0,0,1-1.33-.07,2.72,2.72,0,0,1-.94-.27,3.14,3.14,0,0,1-.81-.6,10.94,10.94,0,0,1-.92-1.09L413.7,231a.61.61,0,0,0-.45-.25h-.31c-.19,0-.28.12-.28.35v18a.67.67,0,0,1-.76.76h-3.62c-.53,0-.79-.25-.79-.76V229.31a4,4,0,0,1,.76-2.85,3.24,3.24,0,0,1,2.34-.74Z"/><path class="cls-49" d="M467.47,225.72c.53,0,.79.25.79.76v3.38a.7.7,0,0,1-.79.79H456.64V249.1a.67.67,0,0,1-.76.76h-3.76a.67.67,0,0,1-.76-.76V230.65H440.53a.7.7,0,0,1-.79-.79v-3.38c0-.51.26-.76.79-.76Z"/><path class="cls-50" d="M211.26,257.28q.35,0,.48.45l5.59,18.56a.24.24,0,0,0,.27.24h.18a.27.27,0,0,0,.27-.24l5.59-17a2.88,2.88,0,0,1,1-1.58,2.7,2.7,0,0,1,1.55-.42h3.42a2.87,2.87,0,0,1,1.74.45,3.17,3.17,0,0,1,1,1.55l5.73,17a.27.27,0,0,0,.27.24h.21c.14,0,.23-.08.28-.24l5.45-18.56a.54.54,0,0,1,.22-.36.63.63,0,0,1,.33-.09h4.66a.29.29,0,0,1,.32.25,1,1,0,0,1-.05.55l-6.62,20.73a4.8,4.8,0,0,1-1.07,2.08,2.25,2.25,0,0,1-1.59.54h-4a2.19,2.19,0,0,1-1.57-.55,5.37,5.37,0,0,1-1.09-2.07l-5.42-16.39a.24.24,0,0,0-.27-.24H228a.26.26,0,0,0-.28.24l-5.48,16.39a5.37,5.37,0,0,1-1.09,2.07,2.19,2.19,0,0,1-1.57.55H215.6a5,5,0,0,1-1-.1,2,2,0,0,1-.77-.4,2.77,2.77,0,0,1-.61-.81,10.14,10.14,0,0,1-.5-1.31l-6.34-20.73a1.07,1.07,0,0,1-.05-.57.29.29,0,0,1,.32-.23Z"/><path class="cls-51" d="M276.69,257.28a.69.69,0,0,1,.79.76v3.28c0,.51-.26.76-.79.76H261.62a9.26,9.26,0,0,0-2.23.22,3,3,0,0,0-1.41.76,2.83,2.83,0,0,0-.74,1.45,10.28,10.28,0,0,0-.21,2.26v.34h19.49a.68.68,0,0,1,.76.76v2.73a.68.68,0,0,1-.76.76H257v.58a10.28,10.28,0,0,0,.21,2.26,2.83,2.83,0,0,0,.74,1.45,3,3,0,0,0,1.41.76,9.26,9.26,0,0,0,2.23.22h15.07a.69.69,0,0,1,.79.76v3.28c0,.51-.26.76-.79.76H261.51a17.81,17.81,0,0,1-4.45-.48,6.91,6.91,0,0,1-3-1.57,6.43,6.43,0,0,1-1.69-2.83,14.41,14.41,0,0,1-.54-4.23v-5.93a14.22,14.22,0,0,1,.54-4.21,6.35,6.35,0,0,1,1.69-2.81,7,7,0,0,1,3-1.59,17.28,17.28,0,0,1,4.45-.5Z"/><path class="cls-52" d="M296.76,257.28a4.21,4.21,0,0,1,2.21.54,5.34,5.34,0,0,1,1.76,2.08l11.42,20.74a.76.76,0,0,1,.09.56c-.06.15-.23.23-.51.23h-4.38a.79.79,0,0,1-.79-.45l-2.45-4.45H287.9L285.52,281a.83.83,0,0,1-.79.45h-4.49c-.3,0-.47-.08-.53-.23a.7.7,0,0,1,.08-.56l11.32-20.74a5.74,5.74,0,0,1,1.69-2.08,3.44,3.44,0,0,1,1.93-.54Zm-6.69,15.25h11.87l-5.49-10.11a.41.41,0,0,0-.37-.24h-.21a.42.42,0,0,0-.38.24Z"/><path class="cls-53" d="M311.67,257.28a1,1,0,0,1,.5.11,1,1,0,0,1,.29.34l10.11,18.56a.4.4,0,0,0,.41.24h.17a.42.42,0,0,0,.38-.24l10-18.56a.79.79,0,0,1,.79-.45h4.52c.28,0,.44.08.5.23a.72.72,0,0,1-.08.57l-11.32,20.73a5.58,5.58,0,0,1-1.69,2.1,3.51,3.51,0,0,1-1.93.52h-2a4.31,4.31,0,0,1-2.23-.52,5.44,5.44,0,0,1-1.74-2.1l-11.45-20.73a.72.72,0,0,1-.08-.57c0-.15.23-.23.53-.23Z"/><path class="cls-54" d="M365.34,257.28a.69.69,0,0,1,.79.76v3.28c0,.51-.26.76-.79.76H350.26a9.23,9.23,0,0,0-2.22.22,2.71,2.71,0,0,0-2.16,2.21,11,11,0,0,0-.2,2.26v.34h19.49a.67.67,0,0,1,.75.76v2.73a.67.67,0,0,1-.75.76H345.68v.58a11,11,0,0,0,.2,2.26,2.71,2.71,0,0,0,2.16,2.21,9.23,9.23,0,0,0,2.22.22h15.08a.69.69,0,0,1,.79.76v3.28c0,.51-.26.76-.79.76H350.16a17.76,17.76,0,0,1-4.45-.48,6.91,6.91,0,0,1-3-1.57,6.33,6.33,0,0,1-1.69-2.83,14.41,14.41,0,0,1-.54-4.23v-5.93a14.22,14.22,0,0,1,.54-4.21,6.26,6.26,0,0,1,1.69-2.81,7,7,0,0,1,3-1.59,17.22,17.22,0,0,1,4.45-.5Z"/><path class="cls-55" d="M389.66,257.28q4,0,5.69,1.8a7.36,7.36,0,0,1,1.72,5.31v2a8,8,0,0,1-1.21,4.7,5.73,5.73,0,0,1-3.93,2.2l5.9,7.32a.5.5,0,0,1,.1.51c0,.23-.22.35-.55.35h-4.45a1.45,1.45,0,0,1-.62-.1A1.27,1.27,0,0,1,392,281l-5.45-7.17H375.38v6.86a.67.67,0,0,1-.76.76h-3.73c-.53,0-.79-.25-.79-.76V258.32a.91.91,0,0,1,1-1ZM375.38,269.6h13.21a3.36,3.36,0,0,0,2.48-.76,3.26,3.26,0,0,0,.72-2.31v-1.45a3.23,3.23,0,0,0-.72-2.31,3.32,3.32,0,0,0-2.48-.76H375.82c-.29,0-.44.14-.44.41Z"/></svg>